Fringe S3E22 WEB-DL DD5.1 ENG+NL Subs

This seasons finale! Season 4 has been confirmed, so we get to see more!
Laatste aflevering van seizoen 3! Seizoen 4 is bevestigt, dus we krijgen nog meer!

Verenigde Staten / Canada ~ 60 minuten ~ geschreven door J.J. Abrams, Alex Kurtzman & Roberto Orci ~ met Anna Torv, Joshua Jackson, Peter Bishop, Lance Reddick, Blair Brown, Jasika Nicole & John Noble.

Als het opwinende seizoen voorstuwt naar een climax, worden vragen beantwoord als Peter tegenover zijn bestemming staat. Een geliefd team lid ondergaat een vroegtijdige dood.

Bestandsformaat: .MKV
Bestandsgrootte: 1,37 GB
Taal: Engels in DD5.1
Ondertitelingen: Engels en Nederlands ~ Nederlands custom door TheThom (in te stellen)
Categorie : Serie
Formaat : 16:9
Bron : WEB-DL (vergelijkbaar met HDTV, doch zonder reclame of logo's)
Menu: Nee
Extra's: Nee
Genre : Mysterie ~ Drama ~ Horror
Weblink :  http://www.imdb.com/title/tt1119644/

~~~~~~~~~~~~~~~~~~~~~~
USA / Canada ~ 60 minutes ~ written by J.J. Abrams, Alex Kurtzman & Roberto Orci ~ with Anna Torv, Joshua Jackson, Peter Bishop, Lance Reddick, Blair Brown, Jasika Nicole & John Noble.

As the thrilling third season propels to a climactic close, questions will be answered as Peter confronts his destiny and a beloved team member meets an untimely demise.

File Format: .MKV
File size: 1.37 GB
Language: English in DD5.1
Subtitles: English and Dutch ~ Dutch custom by TheThom (selectable)
Category : Series
Format : 16:9
Source : WEB-DL (comparable with HDTV, but without advertisements or logos)
Menu: No
Extras: No
Genre : Drama ~ Mystery ~ Horror
Weblink :  http://www.imdb.com/title/tt1119644/

Video and audio information:
~~~~~~~~~~~~~~~~~~~~~~
Video
ID                               : 1
Format                           : AVC
Format/Info                      : Advanced Video Codec
Format profile                   : High@L3.1
Format settings, CABAC           : No
Format settings, ReFrames        : 2 frames
Format settings, GOP             : M=2, N=27
Codec ID                         : V_MPEG4/ISO/AVC
Duration                         : 44mn 3s
Bit rate                         : 3 988 Kbps
Width                            : 1 280 pixels
Height                           : 720 pixels
Display aspect ratio             : 16:9
Frame rate                       : 23.976 fps
Color space                      : YUV
Chroma subsampling               : 4:2:0
Bit depth                        : 8 bits
Scan type                        : Progressive
Bits/(Pixel*Frame)               : 0.180
Stream size                      : 1.23 GiB (89%)
Title                            : 720p WEB-DL H264
Language                         : English
Color primaries                  : BT.709-5, BT.1361, IEC 61966-2-4, SMPTE RP177
Transfer characteristics         : BT.709-5, BT.1361
Matrix coefficients              : BT.709-5, BT.1361, IEC 61966-2-4 709, SMPTE RP177

Audio
ID                               : 2
Format                           : AC-3
Format/Info                      : Audio Coding 3
Mode extension                   : CM (complete main)
Codec ID                         : A_AC3
Duration                         : 44mn 3s
Bit rate mode                    : Constant
Bit rate                         : 384 Kbps
Channel(s)                       : 6 channels
Channel positions                : Front: L C R, Side: L R, LFE
Sampling rate                    : 48.0 KHz
Bit depth                        : 16 bits
Compression mode                 : Lossy
Stream size                      : 121 MiB (9%)
Title                            : DD5.1 @ 384 Kb/s
Language                         : English

~~~~~~~~~~~~~~~
Hornigold TBS
~~~~~~~~~~~~~~~